<svg xmlns="http://www.w3.org/2000/svg" xmlns:xlink="http://www.w3.org/1999/xlink" width="376" zoomAndPan="magnify" viewBox="0 0 282 110.249996" height="147" preserveAspectRatio="xMidYMid meet" version="1.0"><defs><g/><clipPath id="ace054a3fa"><path d="M 1.652344 16.347656 L 80.617188 16.347656 L 80.617188 98.996094 L 1.652344 98.996094 Z M 1.652344 16.347656 " clip-rule="nonzero"/></clipPath><clipPath id="933da3bfac"><path d="M 239.769531 50.953125 L 254.671875 50.953125 L 254.671875 65.851562 L 239.769531 65.851562 Z M 239.769531 50.953125 " clip-rule="nonzero"/></clipPath><clipPath id="7fa810128d"><path d="M 252.417969 49.929688 L 260.613281 49.929688 L 260.613281 58 L 252.417969 58 Z M 252.417969 49.929688 " clip-rule="nonzero"/></clipPath><clipPath id="5b22235192"><path d="M 258.707031 55.675781 L 263.921875 55.675781 L 263.921875 60.890625 L 258.707031 60.890625 Z M 258.707031 55.675781 " clip-rule="nonzero"/></clipPath></defs><g fill="#e2725b" fill-opacity="1"><g transform="translate(96.449154, 41.936251)"><g><path d="M 12.625 0 L 12.625 -19.269531 L 20.082031 -19.269531 L 20.082031 -23.539062 L 0.582031 -23.539062 L 0.582031 -19.269531 L 8.066406 -19.269531 L 8.066406 0 Z M 12.625 0 "/></g></g></g><g fill="#e2725b" fill-opacity="1"><g transform="translate(117.109547, 41.936251)"><g><path d="M 17.414062 0 L 17.414062 -4.265625 L 6.125 -4.265625 L 6.125 -10.011719 L 16.339844 -10.011719 L 16.339844 -14.046875 L 6.125 -14.046875 L 6.125 -19.269531 L 17.355469 -19.269531 L 17.355469 -23.539062 L 1.597656 -23.539062 L 1.597656 0 Z M 17.414062 0 "/></g></g></g><g fill="#e2725b" fill-opacity="1"><g transform="translate(135.680683, 41.936251)"><g><path d="M 17.035156 0 L 17.035156 -4.265625 L 6.152344 -4.265625 L 6.152344 -23.539062 L 1.566406 -23.539062 L 1.566406 0 Z M 17.035156 0 "/></g></g></g><g fill="#e2725b" fill-opacity="1"><g transform="translate(153.294248, 41.936251)"><g><path d="M 17.414062 0 L 17.414062 -4.265625 L 6.125 -4.265625 L 6.125 -10.011719 L 16.339844 -10.011719 L 16.339844 -14.046875 L 6.125 -14.046875 L 6.125 -19.269531 L 17.355469 -19.269531 L 17.355469 -23.539062 L 1.597656 -23.539062 L 1.597656 0 Z M 17.414062 0 "/></g></g></g><g fill="#e2725b" fill-opacity="1"><g transform="translate(171.865384, 41.936251)"><g><path d="M 6.125 0 L 6.125 -8.503906 L 12.246094 -8.503906 C 18.140625 -8.503906 20.578125 -12.015625 20.578125 -16.164062 L 20.578125 -16.195312 C 20.578125 -19.996094 18.398438 -23.539062 12.246094 -23.539062 L 1.597656 -23.539062 L 1.597656 0 Z M 6.125 -19.300781 L 11.78125 -19.300781 C 14.453125 -19.300781 15.933594 -18.226562 15.933594 -15.875 L 15.933594 -15.847656 C 15.933594 -13.523438 14.425781 -12.507812 11.78125 -12.507812 L 6.125 -12.507812 Z M 6.125 -19.300781 "/></g></g></g><g fill="#e2725b" fill-opacity="1"><g transform="translate(193.454328, 41.936251)"><g><path d="M 13.523438 0.378906 C 20.808594 0.378906 25.832031 -4.992188 25.832031 -11.78125 L 25.832031 -11.8125 C 25.832031 -18.660156 20.839844 -23.945312 13.523438 -23.945312 C 6.183594 -23.945312 1.191406 -18.660156 1.191406 -11.8125 L 1.191406 -11.78125 C 1.191406 -4.992188 6.210938 0.378906 13.523438 0.378906 Z M 13.523438 -3.890625 C 9.230469 -3.890625 5.832031 -7.023438 5.832031 -11.78125 L 5.832031 -11.8125 C 5.832031 -16.601562 9.230469 -19.675781 13.523438 -19.675781 C 17.789062 -19.675781 21.1875 -16.601562 21.1875 -11.8125 L 21.1875 -11.78125 C 21.1875 -7.023438 17.789062 -3.890625 13.523438 -3.890625 Z M 13.523438 -3.890625 "/></g></g></g><g fill="#e2725b" fill-opacity="1"><g transform="translate(220.469528, 41.936251)"><g><path d="M 15.382812 -9.695312 C 18.75 -10.738281 20.199219 -13.351562 20.199219 -16.542969 L 20.199219 -16.570312 C 20.199219 -20.375 18.023438 -23.539062 11.871094 -23.539062 L 1.597656 -23.539062 L 1.597656 0 L 6.125 0 L 6.125 -9.230469 L 10.882812 -9.230469 L 16.398438 0 L 21.246094 0 Z M 11.636719 -19.300781 C 14.019531 -19.300781 15.554688 -18.488281 15.554688 -16.136719 L 15.554688 -16.109375 C 15.554688 -13.640625 14.019531 -12.769531 11.636719 -12.769531 L 6.125 -12.769531 L 6.125 -19.300781 Z M 11.636719 -19.300781 "/></g></g></g><g fill="#e2725b" fill-opacity="1"><g transform="translate(242.116511, 41.936251)"><g><path d="M 12.625 0 L 12.625 -19.269531 L 20.082031 -19.269531 L 20.082031 -23.539062 L 0.582031 -23.539062 L 0.582031 -19.269531 L 8.066406 -19.269531 L 8.066406 0 Z M 12.625 0 "/></g></g></g><g clip-path="url(#ace054a3fa)"><path fill="#222e50" d="M 50.261719 94.519531 C 38.476562 90.058594 27.617188 82.644531 19.550781 72.917969 C 15.570312 68.117188 12.113281 62.640625 10.359375 56.609375 C 8.953125 51.753906 8.648438 45.796875 12.097656 41.683594 C 16.210938 36.773438 23.953125 37.414062 29.527344 38.746094 C 35.644531 40.210938 41.589844 43.007812 46.632812 46.761719 C 49.09375 48.59375 51.394531 50.691406 53.285156 53.109375 C 55.136719 55.476562 56.882812 58.433594 56.765625 61.542969 C 56.667969 64.207031 54.960938 66.347656 52.277344 66.789062 C 49.421875 67.253906 46.339844 66.21875 43.824219 64.9375 C 42.714844 64.371094 41.628906 63.707031 40.691406 62.878906 C 42.289062 64.058594 44.21875 64.84375 46.121094 65.375 C 48.132812 65.933594 50.472656 66.320312 52.5 65.636719 C 54.582031 64.9375 55.4375 62.929688 55.101562 60.84375 C 54.75 58.652344 53.390625 56.683594 51.964844 55.042969 C 48.992188 51.625 45.109375 49 41.066406 47.015625 C 36.941406 44.992188 32.503906 43.488281 27.949219 42.835938 C 25.4375 42.472656 22.808594 42.335938 20.308594 42.867188 C 18.648438 43.21875 17.027344 43.902344 16.082031 45.371094 C 14.722656 47.339844 15.125 50.703125 15.761719 53.035156 C 16.570312 55.988281 18.027344 58.757812 19.699219 61.300781 C 23.128906 66.515625 27.652344 71.003906 32.609375 74.761719 C 42.417969 82.195312 54.203125 86.878906 66.449219 88.132812 C 71.238281 88.625 76.035156 88.542969 80.800781 88.011719 L 80.800781 23.054688 C 80.800781 19.351562 77.796875 16.347656 74.09375 16.347656 L 12.882812 16.347656 C 19.457031 16.984375 25.941406 18.453125 32.195312 20.820312 C 43.980469 25.285156 54.839844 32.695312 62.902344 42.425781 C 66.886719 47.226562 70.34375 52.703125 72.09375 58.730469 C 73.503906 63.589844 73.808594 69.546875 70.359375 73.660156 C 66.246094 78.570312 58.503906 77.929688 52.929688 76.59375 C 46.8125 75.128906 40.863281 72.335938 35.824219 68.578125 C 33.363281 66.75 31.0625 64.652344 29.171875 62.230469 C 27.320312 59.867188 25.574219 56.90625 25.691406 53.800781 C 25.789062 51.132812 27.496094 48.996094 30.179688 48.554688 C 33.035156 48.085938 36.117188 49.125 38.632812 50.40625 C 39.742188 50.972656 40.828125 51.632812 41.765625 52.464844 C 40.167969 51.28125 38.238281 50.5 36.335938 49.96875 C 34.324219 49.410156 31.984375 49.019531 29.953125 49.703125 C 27.875 50.40625 27.019531 52.414062 27.355469 54.5 C 27.703125 56.691406 29.066406 58.660156 30.492188 60.300781 C 33.464844 63.71875 37.347656 66.34375 41.390625 68.328125 C 45.515625 70.351562 49.953125 71.855469 54.507812 72.507812 C 57.019531 72.867188 59.648438 73.007812 62.144531 72.476562 C 63.804688 72.121094 65.429688 71.441406 66.371094 69.972656 C 67.734375 68 67.332031 64.636719 66.695312 62.308594 C 65.886719 59.355469 64.429688 56.585938 62.757812 54.039062 C 59.324219 48.828125 54.804688 44.339844 49.847656 40.578125 C 40.039062 33.148438 28.253906 28.464844 16.007812 27.207031 C 11.214844 26.71875 6.421875 26.800781 1.652344 27.328125 L 1.652344 92.285156 C 1.652344 95.992188 4.660156 98.996094 8.363281 98.996094 L 69.574219 98.996094 C 63 98.359375 56.515625 96.886719 50.261719 94.519531 " fill-opacity="1" fill-rule="nonzero"/></g><g fill="#e2725b" fill-opacity="1"><g transform="translate(98.544276, 87.653175)"><g><path d="M 5.453125 -22.203125 C 8.453125 -22.203125 10.664062 -21.703125 12.09375 -20.703125 C 13.53125 -19.703125 14.25 -18.0625 14.25 -15.78125 C 14.25 -13.6875 13.5625 -12.082031 12.1875 -10.96875 C 10.8125 -9.863281 8.84375 -9.3125 6.28125 -9.3125 L 4.890625 -9.3125 L 4.890625 0 L 2.125 0 L 2.125 -22.203125 Z M 4.890625 -11.78125 L 5.75 -11.78125 C 7.882812 -11.78125 9.398438 -12.117188 10.296875 -12.796875 C 11.203125 -13.472656 11.65625 -14.488281 11.65625 -15.84375 C 11.65625 -17.125 11.203125 -18.09375 10.296875 -18.75 C 9.398438 -19.40625 7.800781 -19.734375 5.5 -19.734375 L 4.890625 -19.734375 Z M 4.890625 -11.78125 "/></g></g></g><g fill="#e2725b" fill-opacity="1"><g transform="translate(113.115367, 87.653175)"><g><path d="M 12.046875 -11.484375 L 12.109375 -11.484375 L 12.109375 -13.78125 L 14.75 -13.78125 L 14.75 0 L 12.109375 0 L 12.109375 -2.15625 L 12.046875 -2.15625 C 11.515625 -1.363281 10.847656 -0.726562 10.046875 -0.25 C 9.253906 0.226562 8.359375 0.46875 7.359375 0.46875 C 5.398438 0.46875 3.8125 -0.238281 2.59375 -1.65625 C 1.375 -3.082031 0.765625 -4.859375 0.765625 -6.984375 C 0.765625 -8.335938 1.054688 -9.570312 1.640625 -10.6875 C 2.234375 -11.8125 3.019531 -12.675781 4 -13.28125 C 4.988281 -13.894531 6.082031 -14.203125 7.28125 -14.203125 C 8.28125 -14.203125 9.1875 -13.953125 10 -13.453125 C 10.8125 -12.960938 11.492188 -12.304688 12.046875 -11.484375 Z M 12.25 -6.890625 C 12.25 -8.378906 11.828125 -9.578125 10.984375 -10.484375 C 10.140625 -11.390625 9.0625 -11.84375 7.75 -11.84375 C 6.507812 -11.84375 5.476562 -11.359375 4.65625 -10.390625 C 3.832031 -9.429688 3.421875 -8.265625 3.421875 -6.890625 C 3.421875 -5.472656 3.832031 -4.285156 4.65625 -3.328125 C 5.476562 -2.367188 6.519531 -1.890625 7.78125 -1.890625 C 9.113281 -1.890625 10.191406 -2.351562 11.015625 -3.28125 C 11.835938 -4.21875 12.25 -5.421875 12.25 -6.890625 Z M 12.25 -6.890625 "/></g></g></g><g fill="#e2725b" fill-opacity="1"><g transform="translate(129.482089, 87.653175)"><g><path d="M 2.703125 -13.78125 L 7.359375 -5.03125 L 11.6875 -13.78125 L 14.671875 -13.78125 L 3.5 7.890625 L 0.5 7.890625 L 5.921875 -2.359375 L -0.390625 -13.78125 Z M 2.703125 -13.78125 "/></g></g></g><path stroke-linecap="butt" transform="matrix(0.744932, 0, 0, 0.744932, 94.994208, 57.694278)" fill="none" stroke-linejoin="miter" d="M 0.00253184 0.499546 L 184.923889 0.499546 " stroke="#222e50" stroke-width="1" stroke-opacity="1" stroke-miterlimit="4"/><g clip-path="url(#933da3bfac)"><path fill="#eeba2b" d="M 254.738281 58.4375 L 251.09375 58.96875 C 249.464844 59.203125 248.175781 60.464844 247.902344 62.085938 L 247.253906 65.921875 L 246.605469 62.085938 C 246.332031 60.464844 245.042969 59.203125 243.414062 58.96875 L 239.769531 58.4375 L 243.53125 57.769531 C 245.101562 57.488281 246.328125 56.257812 246.605469 54.6875 L 247.253906 50.953125 L 247.90625 54.6875 C 248.179688 56.257812 249.40625 57.488281 250.976562 57.769531 Z M 254.738281 58.4375 " fill-opacity="1" fill-rule="nonzero"/></g><g clip-path="url(#7fa810128d)"><path fill="#f8cf40" d="M 260.332031 53.886719 L 258.40625 54.167969 C 257.542969 54.292969 256.863281 54.960938 256.714844 55.820312 L 256.375 57.84375 L 256.03125 55.820312 C 255.886719 54.960938 255.207031 54.292969 254.34375 54.167969 L 252.417969 53.886719 L 254.40625 53.535156 C 255.234375 53.386719 255.886719 52.734375 256.03125 51.90625 L 256.375 49.929688 L 256.71875 51.90625 C 256.863281 52.734375 257.511719 53.386719 258.34375 53.535156 Z M 260.332031 53.886719 " fill-opacity="1" fill-rule="nonzero"/></g><g clip-path="url(#5b22235192)"><path fill="#eeba2b" d="M 264.234375 58.4375 L 262.886719 58.632812 C 262.285156 58.722656 261.8125 59.1875 261.710938 59.785156 L 261.46875 61.203125 L 261.230469 59.785156 C 261.128906 59.1875 260.652344 58.722656 260.050781 58.632812 L 258.707031 58.4375 L 260.09375 58.191406 C 260.675781 58.089844 261.128906 57.632812 261.230469 57.054688 L 261.46875 55.675781 L 261.710938 57.054688 C 261.8125 57.632812 262.265625 58.089844 262.84375 58.191406 Z M 264.234375 58.4375 " fill-opacity="1" fill-rule="nonzero"/></g></svg>