<svg xmlns="http://www.w3.org/2000/svg" xmlns:xlink="http://www.w3.org/1999/xlink" width="500" zoomAndPan="magnify" viewBox="0 0 375 374.999991" height="500" preserveAspectRatio="xMidYMid meet" version="1.0"><defs><g/><clipPath id="9c68f8d031"><path d="M 18 164 L 73.511719 164 L 73.511719 231 L 18 231 Z M 18 164 " clip-rule="nonzero"/></clipPath><clipPath id="c1eb963101"><path d="M 18 98 L 73.511719 98 L 73.511719 183 L 18 183 Z M 18 98 " clip-rule="nonzero"/></clipPath><clipPath id="a03a808d03"><path d="M 18 215 L 73.511719 215 L 73.511719 282 L 18 282 Z M 18 215 " clip-rule="nonzero"/></clipPath><clipPath id="17b89b03fb"><path d="M 18 149 L 73.511719 149 L 73.511719 234 L 18 234 Z M 18 149 " clip-rule="nonzero"/></clipPath></defs><g clip-path="url(#9c68f8d031)"><path fill="#293c47" d="M 25.945312 230.136719 L 73.582031 182.394531 L 55.574219 164.347656 L 25.945312 194.042969 C 16.011719 204.003906 16.011719 220.179688 25.945312 230.136719 Z M 25.945312 230.136719 " fill-opacity="1" fill-rule="nonzero"/></g><g clip-path="url(#c1eb963101)"><path fill="#0087f6" d="M 25.945312 134.65625 L 73.582031 182.394531 L 73.582031 146.300781 L 25.945312 98.558594 C 15.976562 108.519531 15.976562 124.695312 25.945312 134.65625 Z M 25.945312 134.65625 " fill-opacity="1" fill-rule="nonzero"/></g><g clip-path="url(#a03a808d03)"><path fill="#293c47" d="M 25.945312 281.1875 L 73.582031 233.480469 L 55.574219 215.433594 L 25.945312 245.128906 C 16.011719 255.050781 16.011719 271.230469 25.945312 281.1875 Z M 25.945312 281.1875 " fill-opacity="1" fill-rule="nonzero"/></g><g clip-path="url(#17b89b03fb)"><path fill="#20aad8" d="M 25.945312 185.703125 L 73.582031 233.480469 L 73.582031 197.386719 L 25.945312 149.609375 C 15.976562 159.566406 15.976562 175.746094 25.945312 185.703125 Z M 25.945312 185.703125 " fill-opacity="1" fill-rule="nonzero"/></g><g fill="#000000" fill-opacity="1"><g transform="translate(96.871258, 152.038835)"><g><path d="M 32.019531 -12.644531 L 22.199219 -54.550781 L 3.429688 -54.550781 L 3.429688 0 L 16.007812 0 L 16.007812 -44.328125 L 26.167969 0 L 37.871094 0 L 48.027344 -44.328125 L 48.027344 0 L 60.605469 0 L 60.605469 -54.550781 L 41.773438 -54.550781 Z M 32.019531 -12.644531 "/></g></g></g><g fill="#000000" fill-opacity="1"><g transform="translate(161.704522, 152.038835)"><g><path d="M 24.6875 1.144531 C 37.734375 1.144531 46.75 -7.734375 46.75 -19.910156 L 46.75 -19.976562 C 46.75 -32.152344 37.804688 -40.898438 24.6875 -40.898438 C 11.570312 -40.898438 2.625 -32.152344 2.625 -19.976562 L 2.625 -19.910156 C 2.625 -7.734375 11.636719 1.144531 24.6875 1.144531 Z M 24.6875 -10.15625 C 19.035156 -10.15625 15.335938 -14.394531 15.335938 -19.976562 L 15.335938 -20.046875 C 15.335938 -25.5625 18.902344 -29.597656 24.6875 -29.597656 C 30.472656 -29.597656 34.035156 -25.5625 34.035156 -20.046875 L 34.035156 -19.976562 C 34.035156 -14.394531 30.335938 -10.15625 24.6875 -10.15625 Z M 24.6875 -10.15625 "/></g></g></g><g fill="#000000" fill-opacity="1"><g transform="translate(211.876368, 152.038835)"><g><path d="M 16.078125 0 L 16.078125 -29.058594 C 18.09375 -29.394531 20.046875 -29.597656 21.523438 -29.597656 C 25.964844 -29.597656 28.117188 -28.050781 28.117188 -24.015625 L 28.117188 0 L 40.761719 0 L 40.761719 -25.492188 C 40.761719 -37.601562 31.882812 -40.898438 21.996094 -40.898438 C 18.09375 -40.898438 10.023438 -39.957031 3.429688 -38.8125 L 3.429688 0 Z M 16.078125 0 "/></g></g></g><g fill="#000000" fill-opacity="1"><g transform="translate(256.869645, 152.038835)"><g><path d="M 43.992188 -18.027344 C 43.992188 -32.554688 36.054688 -40.828125 23.476562 -40.828125 C 10.761719 -40.828125 2.625 -32.289062 2.625 -19.976562 L 2.625 -19.84375 C 2.625 -7.398438 11.300781 1.078125 24.753906 1.078125 C 32.625 1.078125 38.070312 -1.277344 42.242188 -3.765625 L 36.726562 -13.519531 C 33.902344 -11.570312 29.796875 -9.886719 25.222656 -9.886719 C 20.3125 -9.886719 16.882812 -13.117188 15.738281 -17.355469 L 43.992188 -17.355469 Z M 23.339844 -30.875 C 27.644531 -30.875 30.472656 -28.117188 31.210938 -24.214844 L 15.738281 -24.214844 C 16.75 -27.980469 19.441406 -30.875 23.339844 -30.875 Z M 23.339844 -30.875 "/></g></g></g><g fill="#000000" fill-opacity="1"><g transform="translate(304.284072, 152.038835)"><g><path d="M 28.050781 -12.039062 C 26.433594 -11.839844 24.214844 -11.703125 22.667969 -11.703125 C 18.230469 -11.703125 16.078125 -13.183594 16.078125 -17.21875 L 16.078125 -39.148438 L 3.429688 -39.148438 L 3.429688 -17.554688 C 3.429688 -5.515625 12.308594 -2.21875 22.199219 -2.21875 C 23.945312 -2.21875 26.03125 -2.355469 28.050781 -2.554688 L 28.050781 -1.414062 C 28.050781 2.824219 26.367188 4.441406 20.515625 4.441406 C 17.019531 4.441406 10.492188 3.632812 6.457031 1.949219 L 9.351562 13.722656 C 11.703125 14.597656 17.289062 15.605469 22.265625 15.605469 C 31.949219 15.605469 40.761719 11.839844 40.761719 -0.132812 L 40.761719 -38.878906 L 28.050781 -38.878906 Z M 28.050781 -12.039062 "/></g></g></g><g fill="#000000" fill-opacity="1"><g transform="translate(96.871258, 215.600958)"><g><path d="M 21.457031 0.808594 C 33.632812 0.808594 41.300781 -5.179688 41.300781 -14.796875 L 41.300781 -14.933594 C 41.300781 -23.476562 36.792969 -26.90625 23.339844 -31.34375 C 14.597656 -34.238281 11.167969 -36.324219 11.167969 -41.503906 L 11.167969 -41.570312 C 11.167969 -46.007812 14.867188 -49.507812 22.464844 -49.507812 C 27.78125 -49.507812 33.230469 -47.960938 37.265625 -45.203125 L 39.820312 -50.71875 C 35.3125 -53.746094 28.789062 -55.425781 22.398438 -55.425781 C 11.234375 -55.425781 4.507812 -49.777344 4.507812 -41.433594 L 4.507812 -41.300781 C 4.507812 -32.894531 8.003906 -29.125 19.574219 -25.359375 C 30.605469 -21.792969 34.574219 -19.777344 34.574219 -14.796875 L 34.574219 -14.664062 C 34.574219 -8.945312 29.328125 -5.179688 21.1875 -5.179688 C 15.605469 -5.179688 10.023438 -6.859375 5.851562 -9.820312 L 3.230469 -4.304688 C 8.003906 -1.007812 14.730469 0.808594 21.457031 0.808594 Z M 21.457031 0.808594 "/></g></g></g><g fill="#000000" fill-opacity="1"><g transform="translate(142.671576, 215.600958)"><g><path d="M 30.136719 -7.464844 C 27.511719 -7.0625 23.609375 -6.792969 20.582031 -6.792969 C 14.460938 -6.792969 10.761719 -9.011719 10.761719 -15.472656 L 10.761719 -37.398438 L 4.101562 -37.398438 L 4.101562 -14.730469 C 4.101562 -4.035156 11.234375 -0.738281 20.246094 -0.738281 C 22.9375 -0.738281 26.972656 -1.078125 30.136719 -1.546875 L 30.136719 0.472656 C 30.136719 6.390625 27.511719 9.351562 19.976562 9.351562 C 16.277344 9.351562 10.964844 8.070312 7.535156 5.988281 L 8.8125 12.847656 C 11.433594 14.328125 16.414062 15.402344 20.851562 15.402344 C 29.796875 15.402344 36.863281 11.769531 36.863281 1.210938 L 36.863281 -36.726562 L 30.136719 -36.726562 Z M 30.136719 -7.464844 "/></g></g></g><g fill="#000000" fill-opacity="1"><g transform="translate(184.436641, 215.600958)"><g><path d="M 10.761719 0 L 10.761719 -31.613281 C 14.191406 -32.289062 17.691406 -32.625 20.3125 -32.625 C 26.503906 -32.625 30.136719 -30.335938 30.136719 -23.8125 L 30.136719 0 L 36.863281 0 L 36.863281 -24.617188 C 36.863281 -35.3125 29.664062 -38.609375 20.71875 -38.609375 C 16.816406 -38.609375 10.222656 -37.871094 4.101562 -36.792969 L 4.101562 0 Z M 10.761719 0 "/></g></g></g><g fill="#000000" fill-opacity="1"><g transform="translate(226.134462, 215.600958)"><g><path d="M 22.601562 0.875 C 26.972656 0.875 31.683594 -0.269531 35.046875 -2.285156 L 32.421875 -7.601562 C 29.664062 -5.988281 26.367188 -5.042969 22.871094 -5.042969 C 14.460938 -5.042969 9.753906 -10.964844 9.753906 -18.835938 L 9.753906 -18.96875 C 9.753906 -26.90625 14.460938 -32.757812 22.871094 -32.757812 C 26.367188 -32.757812 29.730469 -31.75 32.421875 -30.066406 L 35.113281 -35.382812 C 31.683594 -37.464844 26.972656 -38.675781 22.601562 -38.675781 C 10.5625 -38.675781 2.960938 -30.335938 2.960938 -18.96875 L 2.960938 -18.835938 C 2.960938 -7.464844 10.628906 0.875 22.601562 0.875 Z M 22.601562 0.875 "/></g></g></g><g fill="#000000" fill-opacity="1"><g transform="translate(105.097442, 273.13215)"><g><path d="M 12.234375 -14.625 L 12.234375 -12.90625 L 7.328125 -12.90625 L 7.328125 0 L 5.328125 0 L 5.328125 -12.90625 L 0.421875 -12.90625 L 0.421875 -14.625 Z M 12.234375 -14.625 "/></g></g></g><g fill="#000000" fill-opacity="1"><g transform="translate(117.471332, 273.13215)"><g><path d="M 9.53125 -2.53125 C 9.550781 -1.90625 9.570312 -1.429688 9.59375 -1.109375 C 9.625 -0.796875 9.660156 -0.425781 9.703125 0 L 7.984375 0 C 7.910156 -0.226562 7.859375 -0.457031 7.828125 -0.6875 C 7.804688 -0.914062 7.796875 -1.191406 7.796875 -1.515625 C 7.484375 -0.929688 7.078125 -0.476562 6.578125 -0.15625 C 6.078125 0.164062 5.429688 0.328125 4.640625 0.328125 C 3.546875 0.328125 2.675781 0.0507812 2.03125 -0.5 C 1.394531 -1.0625 1.078125 -1.785156 1.078125 -2.671875 C 1.078125 -3.734375 1.492188 -4.601562 2.328125 -5.28125 C 3.160156 -5.96875 4.457031 -6.3125 6.21875 -6.3125 C 6.914062 -6.3125 7.425781 -6.289062 7.75 -6.25 L 7.75 -7.109375 C 7.75 -7.929688 7.546875 -8.476562 7.140625 -8.75 C 6.742188 -9.03125 6.210938 -9.171875 5.546875 -9.171875 C 4.953125 -9.171875 4.484375 -9.023438 4.140625 -8.734375 C 3.796875 -8.441406 3.609375 -8.015625 3.578125 -7.453125 L 1.6875 -7.453125 C 1.75 -8.492188 2.125 -9.253906 2.8125 -9.734375 C 3.5 -10.222656 4.453125 -10.46875 5.671875 -10.46875 C 6.785156 -10.46875 7.722656 -10.234375 8.484375 -9.765625 C 9.242188 -9.304688 9.625 -8.550781 9.625 -7.5 Z M 7.71875 -3.890625 L 7.75 -4.9375 C 7.644531 -4.957031 7.5 -4.972656 7.3125 -4.984375 C 7.132812 -4.992188 6.914062 -5 6.65625 -5 C 4.21875 -5 3 -4.316406 3 -2.953125 C 3 -2.441406 3.175781 -2.015625 3.53125 -1.671875 C 3.882812 -1.335938 4.410156 -1.171875 5.109375 -1.171875 C 5.910156 -1.171875 6.535156 -1.410156 6.984375 -1.890625 C 7.441406 -2.378906 7.6875 -3.046875 7.71875 -3.890625 Z M 7.71875 -3.890625 "/></g></g></g><g fill="#000000" fill-opacity="1"><g transform="translate(128.731377, 273.13215)"><g><path d="M 6.75 0.390625 C 5.976562 0.390625 5.332031 0.25 4.8125 -0.03125 C 4.289062 -0.320312 3.890625 -0.691406 3.609375 -1.140625 L 3.609375 3.90625 L 1.71875 3.90625 L 1.71875 -8.609375 C 1.71875 -8.765625 1.695312 -9.285156 1.65625 -10.171875 L 3.578125 -10.171875 C 3.609375 -9.472656 3.625 -8.910156 3.625 -8.484375 C 3.988281 -9.085938 4.476562 -9.546875 5.09375 -9.859375 C 5.707031 -10.171875 6.378906 -10.328125 7.109375 -10.328125 C 8.390625 -10.328125 9.414062 -9.859375 10.1875 -8.921875 C 10.96875 -7.984375 11.359375 -6.695312 11.359375 -5.0625 C 11.359375 -3.414062 10.929688 -2.09375 10.078125 -1.09375 C 9.234375 -0.101562 8.125 0.390625 6.75 0.390625 Z M 9.375 -5.1875 C 9.375 -7.664062 8.441406 -8.90625 6.578125 -8.90625 C 5.609375 -8.90625 4.859375 -8.570312 4.328125 -7.90625 C 3.804688 -7.25 3.546875 -6.207031 3.546875 -4.78125 C 3.546875 -3.507812 3.785156 -2.5625 4.265625 -1.9375 C 4.753906 -1.320312 5.46875 -1.015625 6.40625 -1.015625 C 7.414062 -1.015625 8.160156 -1.390625 8.640625 -2.140625 C 9.128906 -2.898438 9.375 -3.914062 9.375 -5.1875 Z M 9.375 -5.1875 "/></g></g></g><g fill="#000000" fill-opacity="1"><g transform="translate(141.105267, 273.13215)"><g><path d="M 4.640625 -2.4375 L 2.375 2.546875 L 1 2.546875 L 2.28125 -2.4375 Z M 4.640625 -2.4375 "/></g></g></g><g fill="#000000" fill-opacity="1"><g transform="translate(146.735278, 273.13215)"><g/></g></g><g fill="#000000" fill-opacity="1"><g transform="translate(152.36529, 273.13215)"><g><path d="M 9.796875 -10.96875 C 9.710938 -12.457031 8.695312 -13.203125 6.75 -13.203125 C 5.71875 -13.203125 4.914062 -12.988281 4.34375 -12.5625 C 3.769531 -12.132812 3.484375 -11.554688 3.484375 -10.828125 C 3.484375 -10.316406 3.640625 -9.898438 3.953125 -9.578125 C 4.265625 -9.253906 4.953125 -8.957031 6.015625 -8.6875 L 8.421875 -8.09375 C 9.878906 -7.726562 10.890625 -7.234375 11.453125 -6.609375 C 12.015625 -5.992188 12.296875 -5.195312 12.296875 -4.21875 C 12.296875 -2.820312 11.765625 -1.710938 10.703125 -0.890625 C 9.648438 -0.0664062 8.265625 0.34375 6.546875 0.34375 C 4.691406 0.34375 3.328125 -0.0507812 2.453125 -0.84375 C 1.578125 -1.632812 1.140625 -2.695312 1.140625 -4.03125 L 1.140625 -4.265625 L 3.234375 -4.265625 C 3.234375 -3.242188 3.523438 -2.503906 4.109375 -2.046875 C 4.703125 -1.597656 5.585938 -1.375 6.765625 -1.375 C 7.910156 -1.375 8.765625 -1.625 9.328125 -2.125 C 9.898438 -2.632812 10.1875 -3.253906 10.1875 -3.984375 C 10.1875 -4.785156 9.851562 -5.351562 9.1875 -5.6875 C 8.53125 -6.03125 7.351562 -6.382812 5.65625 -6.75 C 3.96875 -7.113281 2.828125 -7.617188 2.234375 -8.265625 C 1.640625 -8.921875 1.34375 -9.707031 1.34375 -10.625 C 1.34375 -11.925781 1.863281 -12.960938 2.90625 -13.734375 C 3.945312 -14.515625 5.28125 -14.90625 6.90625 -14.90625 C 8.46875 -14.90625 9.679688 -14.5625 10.546875 -13.875 C 11.421875 -13.195312 11.875 -12.226562 11.90625 -10.96875 Z M 9.796875 -10.96875 "/></g></g></g><g fill="#000000" fill-opacity="1"><g transform="translate(165.873287, 273.13215)"><g><path d="M 2.390625 -10.171875 L 5.5625 -2.140625 L 8.8125 -10.171875 L 10.875 -10.171875 L 6.3125 0.140625 L 4.90625 3.84375 L 2.9375 3.84375 L 4.46875 -0.046875 L 0.25 -10.171875 Z M 2.390625 -10.171875 "/></g></g></g><g fill="#000000" fill-opacity="1"><g transform="translate(177.133332, 273.13215)"><g><path d="M 10.6875 0 L 8.75 0 L 8.75 -6.65625 C 8.75 -7.382812 8.519531 -7.9375 8.0625 -8.3125 C 7.613281 -8.695312 7.0625 -8.890625 6.40625 -8.890625 C 5.59375 -8.890625 4.945312 -8.601562 4.46875 -8.03125 C 3.988281 -7.457031 3.75 -6.75 3.75 -5.90625 L 3.75 0 L 1.84375 0 L 1.84375 -9.4375 C 1.84375 -9.625 1.835938 -9.867188 1.828125 -10.171875 L 3.71875 -10.171875 C 3.71875 -9.742188 3.726562 -9.394531 3.75 -9.125 L 3.75 -8.53125 C 4.363281 -9.757812 5.445312 -10.375 7 -10.375 C 8.09375 -10.375 8.976562 -10.066406 9.65625 -9.453125 C 10.34375 -8.835938 10.6875 -7.992188 10.6875 -6.921875 Z M 10.6875 0 "/></g></g></g><g fill="#000000" fill-opacity="1"><g transform="translate(189.507222, 273.13215)"><g><path d="M 7.578125 -6.90625 C 7.535156 -7.601562 7.335938 -8.128906 6.984375 -8.484375 C 6.628906 -8.847656 6.148438 -9.03125 5.546875 -9.03125 C 4.722656 -9.03125 4.078125 -8.722656 3.609375 -8.109375 C 3.148438 -7.492188 2.921875 -6.519531 2.921875 -5.1875 C 2.921875 -2.507812 3.765625 -1.171875 5.453125 -1.171875 C 6.097656 -1.171875 6.613281 -1.363281 7 -1.75 C 7.394531 -2.132812 7.613281 -2.675781 7.65625 -3.375 L 9.578125 -3.375 C 9.492188 -2.3125 9.082031 -1.4375 8.34375 -0.75 C 7.601562 -0.0703125 6.648438 0.265625 5.484375 0.265625 C 4.066406 0.265625 2.945312 -0.164062 2.125 -1.03125 C 1.3125 -1.894531 0.90625 -3.195312 0.90625 -4.9375 C 0.90625 -6.664062 1.332031 -8.007812 2.1875 -8.96875 C 3.050781 -9.9375 4.160156 -10.421875 5.515625 -10.421875 C 6.679688 -10.421875 7.625 -10.109375 8.34375 -9.484375 C 9.070312 -8.859375 9.457031 -8 9.5 -6.90625 Z M 7.578125 -6.90625 "/></g></g></g><g fill="#000000" fill-opacity="1"><g transform="translate(199.633159, 273.13215)"><g><path d="M 4.640625 -2.4375 L 2.375 2.546875 L 1 2.546875 L 2.28125 -2.4375 Z M 4.640625 -2.4375 "/></g></g></g><g fill="#000000" fill-opacity="1"><g transform="translate(205.263171, 273.13215)"><g/></g></g><g fill="#000000" fill-opacity="1"><g transform="translate(210.893183, 273.13215)"><g><path d="M 7.296875 -14.625 C 8.878906 -14.625 10.015625 -14.222656 10.703125 -13.421875 C 11.398438 -12.628906 11.75 -11.691406 11.75 -10.609375 C 11.75 -9.453125 11.34375 -8.476562 10.53125 -7.6875 C 9.71875 -6.894531 8.3125 -6.5 6.3125 -6.5 L 3.8125 -6.5 L 3.8125 0 L 1.78125 0 L 1.78125 -14.625 Z M 6.453125 -8.203125 C 7.546875 -8.203125 8.34375 -8.40625 8.84375 -8.8125 C 9.34375 -9.21875 9.59375 -9.84375 9.59375 -10.6875 C 9.59375 -11.488281 9.367188 -12.070312 8.921875 -12.4375 C 8.484375 -12.800781 7.765625 -12.984375 6.765625 -12.984375 L 3.8125 -12.984375 L 3.8125 -8.203125 Z M 6.453125 -8.203125 "/></g></g></g><g fill="#000000" fill-opacity="1"><g transform="translate(223.267072, 273.13215)"><g><path d="M 7.5 -10.25 L 7.5 -8.390625 C 7.300781 -8.453125 7.015625 -8.484375 6.640625 -8.484375 C 5.617188 -8.484375 4.890625 -8.226562 4.453125 -7.71875 C 4.023438 -7.21875 3.8125 -6.472656 3.8125 -5.484375 L 3.8125 0 L 1.890625 0 L 1.890625 -8.234375 C 1.847656 -9.140625 1.8125 -9.785156 1.78125 -10.171875 L 3.703125 -10.171875 C 3.734375 -9.359375 3.75 -8.703125 3.75 -8.203125 C 3.925781 -8.890625 4.300781 -9.40625 4.875 -9.75 C 5.445312 -10.09375 6.140625 -10.265625 6.953125 -10.265625 C 7.160156 -10.265625 7.34375 -10.257812 7.5 -10.25 Z M 7.5 -10.25 "/></g></g></g><g fill="#000000" fill-opacity="1"><g transform="translate(231.145058, 273.13215)"><g><path d="M 6.03125 0.34375 C 4.488281 0.34375 3.269531 -0.132812 2.375 -1.09375 C 1.476562 -2.0625 1.03125 -3.351562 1.03125 -4.96875 C 1.03125 -6.664062 1.488281 -8 2.40625 -8.96875 C 3.320312 -9.9375 4.585938 -10.421875 6.203125 -10.421875 C 7.765625 -10.421875 8.984375 -9.945312 9.859375 -9 C 10.734375 -8.0625 11.171875 -6.753906 11.171875 -5.078125 C 11.171875 -3.421875 10.695312 -2.101562 9.75 -1.125 C 8.8125 -0.144531 7.570312 0.34375 6.03125 0.34375 Z M 9.15625 -5.15625 C 9.15625 -6.375 8.894531 -7.320312 8.375 -8 C 7.851562 -8.6875 7.128906 -9.03125 6.203125 -9.03125 C 5.265625 -9.03125 4.5 -8.679688 3.90625 -7.984375 C 3.3125 -7.296875 3.015625 -6.34375 3.015625 -5.125 C 3.015625 -3.90625 3.28125 -2.925781 3.8125 -2.1875 C 4.34375 -1.445312 5.09375 -1.078125 6.0625 -1.078125 C 6.988281 -1.078125 7.734375 -1.429688 8.296875 -2.140625 C 8.867188 -2.847656 9.15625 -3.851562 9.15625 -5.15625 Z M 9.15625 -5.15625 "/></g></g></g><g fill="#000000" fill-opacity="1"><g transform="translate(243.518947, 273.13215)"><g><path d="M 8.96875 -7.34375 L 7.03125 -7.34375 L 7.03125 -7.46875 C 7.03125 -8.5 6.375 -9.015625 5.0625 -9.015625 C 4.414062 -9.015625 3.910156 -8.890625 3.546875 -8.640625 C 3.179688 -8.390625 3 -8.023438 3 -7.546875 C 3 -6.929688 3.410156 -6.519531 4.234375 -6.3125 L 6.578125 -5.734375 C 7.472656 -5.515625 8.140625 -5.1875 8.578125 -4.75 C 9.015625 -4.3125 9.234375 -3.722656 9.234375 -2.984375 C 9.234375 -1.984375 8.851562 -1.1875 8.09375 -0.59375 C 7.34375 -0.0078125 6.28125 0.28125 4.90625 0.28125 C 3.601562 0.28125 2.601562 -0.00390625 1.90625 -0.578125 C 1.21875 -1.148438 0.875 -1.960938 0.875 -3.015625 L 2.875 -3.015625 C 2.875 -2.429688 3.066406 -1.976562 3.453125 -1.65625 C 3.835938 -1.332031 4.394531 -1.171875 5.125 -1.171875 C 5.8125 -1.171875 6.328125 -1.316406 6.671875 -1.609375 C 7.023438 -1.910156 7.203125 -2.300781 7.203125 -2.78125 C 7.203125 -3.382812 6.882812 -3.773438 6.25 -3.953125 C 5.625 -4.140625 4.882812 -4.328125 4.03125 -4.515625 C 3.164062 -4.703125 2.457031 -5.003906 1.90625 -5.421875 C 1.351562 -5.847656 1.078125 -6.484375 1.078125 -7.328125 C 1.078125 -8.242188 1.441406 -8.984375 2.171875 -9.546875 C 2.910156 -10.117188 3.867188 -10.40625 5.046875 -10.40625 C 6.148438 -10.40625 7.078125 -10.175781 7.828125 -9.71875 C 8.585938 -9.269531 8.96875 -8.578125 8.96875 -7.640625 Z M 8.96875 -7.34375 "/></g></g></g><g fill="#000000" fill-opacity="1"><g transform="translate(253.644885, 273.13215)"><g><path d="M 6.75 0.390625 C 5.976562 0.390625 5.332031 0.25 4.8125 -0.03125 C 4.289062 -0.320312 3.890625 -0.691406 3.609375 -1.140625 L 3.609375 3.90625 L 1.71875 3.90625 L 1.71875 -8.609375 C 1.71875 -8.765625 1.695312 -9.285156 1.65625 -10.171875 L 3.578125 -10.171875 C 3.609375 -9.472656 3.625 -8.910156 3.625 -8.484375 C 3.988281 -9.085938 4.476562 -9.546875 5.09375 -9.859375 C 5.707031 -10.171875 6.378906 -10.328125 7.109375 -10.328125 C 8.390625 -10.328125 9.414062 -9.859375 10.1875 -8.921875 C 10.96875 -7.984375 11.359375 -6.695312 11.359375 -5.0625 C 11.359375 -3.414062 10.929688 -2.09375 10.078125 -1.09375 C 9.234375 -0.101562 8.125 0.390625 6.75 0.390625 Z M 9.375 -5.1875 C 9.375 -7.664062 8.441406 -8.90625 6.578125 -8.90625 C 5.609375 -8.90625 4.859375 -8.570312 4.328125 -7.90625 C 3.804688 -7.25 3.546875 -6.207031 3.546875 -4.78125 C 3.546875 -3.507812 3.785156 -2.5625 4.265625 -1.9375 C 4.753906 -1.320312 5.46875 -1.015625 6.40625 -1.015625 C 7.414062 -1.015625 8.160156 -1.390625 8.640625 -2.140625 C 9.128906 -2.898438 9.375 -3.914062 9.375 -5.1875 Z M 9.375 -5.1875 "/></g></g></g><g fill="#000000" fill-opacity="1"><g transform="translate(266.018775, 273.13215)"><g><path d="M 10.25 -4.734375 L 2.9375 -4.734375 L 2.9375 -4.578125 C 2.9375 -3.484375 3.1875 -2.625 3.6875 -2 C 4.195312 -1.382812 4.921875 -1.078125 5.859375 -1.078125 C 6.546875 -1.078125 7.097656 -1.253906 7.515625 -1.609375 C 7.929688 -1.960938 8.171875 -2.484375 8.234375 -3.171875 L 10.140625 -3.171875 C 10.066406 -2.117188 9.632812 -1.273438 8.84375 -0.640625 C 8.0625 -0.015625 7.035156 0.296875 5.765625 0.296875 C 4.203125 0.296875 3.023438 -0.148438 2.234375 -1.046875 C 1.441406 -1.953125 1.046875 -3.265625 1.046875 -4.984375 C 1.046875 -6.753906 1.460938 -8.101562 2.296875 -9.03125 C 3.140625 -9.957031 4.328125 -10.421875 5.859375 -10.421875 C 8.742188 -10.421875 10.207031 -8.796875 10.25 -5.546875 Z M 8.296875 -6.078125 L 8.296875 -6.21875 C 8.296875 -7.125 8.085938 -7.828125 7.671875 -8.328125 C 7.265625 -8.828125 6.640625 -9.078125 5.796875 -9.078125 C 4.984375 -9.078125 4.320312 -8.804688 3.8125 -8.265625 C 3.3125 -7.734375 3.046875 -7.003906 3.015625 -6.078125 Z M 8.296875 -6.078125 "/></g></g></g><g fill="#000000" fill-opacity="1"><g transform="translate(277.278819, 273.13215)"><g><path d="M 7.5 -10.25 L 7.5 -8.390625 C 7.300781 -8.453125 7.015625 -8.484375 6.640625 -8.484375 C 5.617188 -8.484375 4.890625 -8.226562 4.453125 -7.71875 C 4.023438 -7.21875 3.8125 -6.472656 3.8125 -5.484375 L 3.8125 0 L 1.890625 0 L 1.890625 -8.234375 C 1.847656 -9.140625 1.8125 -9.785156 1.78125 -10.171875 L 3.703125 -10.171875 C 3.734375 -9.359375 3.75 -8.703125 3.75 -8.203125 C 3.925781 -8.890625 4.300781 -9.40625 4.875 -9.75 C 5.445312 -10.09375 6.140625 -10.265625 6.953125 -10.265625 C 7.160156 -10.265625 7.34375 -10.257812 7.5 -10.25 Z M 7.5 -10.25 "/></g></g></g></svg>